<?xml version="1.0" encoding="utf-8"?>
<!-- Generator: Adobe Illustrator 20.1.0, SVG Export Plug-In . SVG Version: 6.00 Build 0)  -->
<svg version="1.1" id="Layer_1" xmlns="http://www.w3.org/2000/svg" xmlns:xlink="http://www.w3.org/1999/xlink" x="0px" y="0px"
	 viewBox="0 0 480 320" style="enable-background:new 0 0 480 320;" xml:space="preserve">
<style type="text/css">
	.st0{fill:#5E5E5E;}
	.st1{fill:#35C1DC;}
	.st2{fill:#FFFFFF;}
</style>
<g>
	<g>
		<path class="st2" d="M101.7,224.9c0-0.2,0.2-0.3,0.4-0.3h0.4c0.2,0,0.3,0.1,0.4,0.3l8.2,24.6c0,0,0,0,0.1,0l8.3-24.6
			c0.1-0.2,0.2-0.3,0.4-0.3h0.4c0.2,0,0.3,0.1,0.4,0.3l5.7,27.6c0.1,0.4-0.1,0.5-0.4,0.5h-1c-0.2,0-0.4-0.2-0.5-0.4l-4.5-23.5
			c0,0-0.1,0-0.1,0l-8.1,24c-0.1,0.2-0.3,0.3-0.6,0.3h-0.2c-0.2,0-0.4,0-0.5-0.3l-8.1-24c0,0,0,0-0.1,0l-4.5,23.5
			c0,0.2-0.2,0.4-0.5,0.4h-1c-0.4,0-0.5-0.1-0.4-0.5L101.7,224.9z"/>
		<path class="st2" d="M147.1,225.5c0-0.3,0.2-0.5,0.5-0.5h16.1c0.3,0,0.5,0.2,0.5,0.5v0.7c0,0.3-0.2,0.5-0.5,0.5H149v11h12.7
			c0.3,0,0.5,0.2,0.5,0.5v0.7c0,0.3-0.2,0.5-0.5,0.5H149v11.8h14.6c0.3,0,0.5,0.2,0.5,0.5v0.6c0,0.3-0.2,0.5-0.5,0.5h-16.1
			c-0.3,0-0.5-0.2-0.5-0.5V225.5z"/>
		<path class="st2" d="M189,225.5c0-0.3,0.2-0.5,0.5-0.5h14.1c0.3,0,0.5,0.2,0.5,0.4v0.7c0,0.3,0,0.5-0.5,0.5h-12.8v25.8
			c0,0.3-0.2,0.5-0.5,0.5h-0.9c-0.3,0-0.5-0.2-0.5-0.5V225.5z"/>
		<path class="st2" d="M219.6,225.5c0-0.3,0.2-0.5,0.5-0.5h9.9c4.9,0,8.9,3.7,8.9,8.6c0,4-2.8,7.3-6.6,8.4l5.8,10.4
			c0.2,0.3,0.1,0.7-0.3,0.7h-1.2c-0.3,0-0.4-0.1-0.6-0.4l-5.8-10.5c-0.5,0-1,0-1.5,0h-7.4v10.3c0,0.3-0.2,0.5-0.6,0.5h-0.7
			c-0.3,0-0.5-0.2-0.5-0.5V225.5z M230,240.5c3.8,0,7.1-3,7.1-7c0-3.8-3.2-6.7-7.1-6.7h-8.4v13.7H230z"/>
		<path class="st2" d="M260.1,225.5c0-0.3,0.2-0.5,0.5-0.5h0.9c0.3,0,0.5,0.2,0.5,0.5v27c0,0.3-0.3,0.5-0.6,0.5h-0.8
			c-0.3,0-0.5-0.2-0.5-0.5V225.5z"/>
		<path class="st2" d="M297.5,224.6c4.1,0,7.1,1.4,9.7,3.7c0.2,0.2,0.2,0.5,0,0.7l-0.6,0.7c-0.2,0.2-0.4,0.2-0.7,0
			c-2.3-2-5.2-3.3-8.4-3.3c-7,0-12.5,5.7-12.5,12.6c0,6.9,5.5,12.6,12.5,12.6c3.4,0,6-1.4,8.4-3.4c0.2-0.2,0.5-0.2,0.6-0.1l0.7,0.7
			c0.2,0.2,0.2,0.5,0,0.7c-2.7,2.6-6.2,3.9-9.8,3.9c-8,0-14.5-6.3-14.5-14.4C283,231,289.5,224.6,297.5,224.6z"/>
		<path class="st2" d="M324.2,252.5l12.3-27.9c0.1-0.2,0.3-0.3,0.5-0.3h0.1c0.2,0,0.4,0,0.5,0.3l12.2,27.9c0.1,0.2,0.1,0.5-0.4,0.5
			h-1c-0.3,0-0.5-0.2-0.6-0.4l-3.2-7.4h-15.3l-3.2,7.4c-0.1,0.2-0.3,0.4-0.6,0.4h-1.1C324.2,253,324.1,252.9,324.2,252.5z
			 M344,243.7l-6.8-16.1h-0.1l-7,16.1H344z"/>
		<path class="st2" d="M368.8,225.5c0-0.3,0.2-0.5,0.5-0.5h0.9c0.2,0,0.5,0.2,0.5,0.5v25.8h12.8c0.5,0,0.5,0.2,0.5,0.5v0.7
			c0,0.3-0.2,0.4-0.5,0.4h-14.1c-0.3,0-0.5-0.2-0.5-0.5V225.5z"/>
	</g>
	<path class="st2" d="M240.2,66.6c-35.3,0-64,28.7-64,64s28.7,64,64,64c1.7,0,3.5-0.1,5.2-0.2c2.3-0.2,4.1-2.2,3.9-4.5
		c-0.1-1.1-0.6-2.2-1.5-2.9c-0.9-0.7-2-1.1-3.1-1c-1.5,0.1-3,0.2-4.6,0.2c-30.6,0-55.6-24.9-55.6-55.6c0-30.6,24.9-55.6,55.6-55.6
		s55.6,24.9,55.6,55.6c0,10.8-3.1,21.2-8.9,30.2c-4.6,7.1-10.8,13.1-18.1,17.4v-75.8c0-2.3-1.9-4.2-4.2-4.2s-4.2,1.9-4.2,4.2v82.3
		c0,1.1,0.5,2.2,1.2,2.9v0.1h0.1c0.8,0.7,1.8,1.2,2.9,1.2h0.9c0.6,0,1.2-0.1,1.8-0.4c10.9-5.1,20.1-13.1,26.7-23.2
		c6.7-10.4,10.3-22.4,10.3-34.8C304.2,95.3,275.5,66.6,240.2,66.6z M236,114.2v39.5c0,2.3,1.9,4.2,4.2,4.2s4.2-1.9,4.2-4.2v-39.5
		c0-2.3-1.9-4.2-4.2-4.2S236,111.8,236,114.2z M211.6,121.7v32.1c0,2.3,1.9,4.2,4.2,4.2c2.3,0,4.2-1.9,4.2-4.2v-32.1
		c0-2.3-1.9-4.2-4.2-4.2C213.5,117.4,211.6,119.3,211.6,121.7z"/>
</g>
</svg>
