<svg id="Layer_1" data-name="Layer 1" xmlns="http://www.w3.org/2000/svg" viewBox="0 0 304 306"><defs><style>.cls-1{fill:#444041;}</style></defs><title>Metrical_Box-Display</title><path class="cls-1" d="M105.22,127.73a8.12,8.12,0,0,0-8.11,8.11v61.58a8.11,8.11,0,1,0,16.21,0V135.84a8.12,8.12,0,0,0-8.11-8.11M152,113.34a8.12,8.12,0,0,0-8.11,8.11v76a8.11,8.11,0,1,0,16.21,0v-76a8.12,8.12,0,0,0-8.11-8.11M152,30a123,123,0,1,0,0,246c3.36,0,6.75-.14,10.07-.41a8.11,8.11,0,0,0-.63-16.19l-.68,0c-2.89.23-5.83.35-8.76.35a106.69,106.69,0,1,1,54.88-15.16V99a8.11,8.11,0,0,0-16.21,0V257.18a8.08,8.08,0,0,0,2.3,5.66V263h.15a8.08,8.08,0,0,0,5.65,2.3h1.73a8.19,8.19,0,0,0,3.43-.76A123,123,0,0,0,152,30"/></svg>