<svg id="Layer_1" data-name="Layer 1" xmlns="http://www.w3.org/2000/svg" viewBox="0 0 626 304"><defs><style>.cls-1{fill:#fff;}</style></defs><title>Metrical_Box-Display</title><path class="cls-1" d="M241.51,136.34a.43.43,0,0,1,.4-.31h.49a.43.43,0,0,1,.45.31l9.21,27.44h.09l9.25-27.44a.43.43,0,0,1,.45-.31h.49a.43.43,0,0,1,.4.31l6.34,30.83c.09.45-.09.58-.49.58h-1.07a.57.57,0,0,1-.54-.49l-5-26.19h-.09l-9,26.77a.6.6,0,0,1-.63.36H252a.52.52,0,0,1-.58-.36l-9-26.77h-.09l-5,26.19a.57.57,0,0,1-.54.49h-1.07c-.4,0-.58-.13-.49-.58Z"/><path class="cls-1" d="M292.22,137.05a.59.59,0,0,1,.58-.58h17.92a.59.59,0,0,1,.58.58v.76a.59.59,0,0,1-.58.58H294.36v12.33h14.17a.59.59,0,0,1,.58.58v.76a.59.59,0,0,1-.58.58H294.36v13.23h16.36a.59.59,0,0,1,.58.58v.71a.59.59,0,0,1-.58.58H292.8a.59.59,0,0,1-.58-.58Z"/><path class="cls-1" d="M339,137.05a.59.59,0,0,1,.58-.58h15.77a.52.52,0,0,1,.58.49v.8c0,.31,0,.58-.58.58H341.1v28.82a.58.58,0,0,1-.54.58h-1a.59.59,0,0,1-.58-.58Z"/><path class="cls-1" d="M373.14,137.05a.56.56,0,0,1,.58-.58H384.8a9.58,9.58,0,0,1,2.59,18.9l6.52,11.57c.22.36.13.8-.31.8h-1.39a.63.63,0,0,1-.63-.4l-6.48-11.71c-.58,0-1.07,0-1.65,0h-8.22v11.48c0,.31-.27.58-.71.58h-.81a.59.59,0,0,1-.58-.58Zm11.57,16.76a7.81,7.81,0,0,0,7.91-7.78,7.71,7.71,0,0,0-8-7.51h-9.39v15.28Z"/><path class="cls-1" d="M418.35,137.05a.59.59,0,0,1,.58-.58h1a.59.59,0,0,1,.58.58v30.12a.6.6,0,0,1-.63.58h-.94a.59.59,0,0,1-.58-.58Z"/><path class="cls-1" d="M460.09,136a15.31,15.31,0,0,1,10.86,4.16.57.57,0,0,1,0,.8l-.71.76c-.27.27-.49.22-.76,0a14,14,0,1,0-9.43,24.49,14.17,14.17,0,0,0,9.43-3.75.56.56,0,0,1,.72-.09l.76.76a.51.51,0,0,1,0,.76,15.44,15.44,0,0,1-10.9,4.33,16.09,16.09,0,1,1,0-32.17Z"/><path class="cls-1" d="M489.93,167.22l13.76-31.1a.62.62,0,0,1,.54-.31h.13a.57.57,0,0,1,.58.31l13.63,31.1c.09.27.09.54-.4.54H517a.73.73,0,0,1-.63-.4l-3.62-8.22H495.7l-3.58,8.22a.72.72,0,0,1-.63.4h-1.25C489.93,167.75,489.8,167.57,489.93,167.22ZM512,157.38l-7.64-18h-.09l-7.78,18Z"/><path class="cls-1" d="M539.75,137.05a.59.59,0,0,1,.58-.58h1a.58.58,0,0,1,.54.58v28.82H556.1c.54,0,.58.27.58.58v.8a.52.52,0,0,1-.58.49H540.33a.59.59,0,0,1-.58-.58Z"/><path class="cls-1" d="M140.79,80.53a71.47,71.47,0,1,0,0,142.95c2,0,3.92-.08,5.85-.24a4.71,4.71,0,1,0-.76-9.39c-1.68.14-3.39.21-5.09.21a62,62,0,1,1,31.89-8.81V120.61a4.71,4.71,0,0,0-9.42,0v91.92a4.69,4.69,0,0,0,1.34,3.29v.09h.09a4.7,4.7,0,0,0,3.29,1.34h1a4.76,4.76,0,0,0,2-.44A71.48,71.48,0,0,0,140.79,80.53Zm-4.71,53.14v44.15a4.71,4.71,0,1,0,9.42,0V133.66a4.71,4.71,0,1,0-9.42,0ZM108.9,142v35.78a4.71,4.71,0,1,0,9.42,0V142a4.71,4.71,0,0,0-9.42,0Z"/></svg>